<?xml version="1.0" encoding="UTF-8"?>
<!DOCTYPE svg PUBLIC "-//W3C//DTD SVG 1.1//EN" "http://www.w3.org/Graphics/SVG/1.1/DTD/svg11.dtd">
<!-- Creator: CorelDRAW X8 -->
<svg xmlns="http://www.w3.org/2000/svg" xml:space="preserve" width="40px" height="40px" version="1.1" style="shape-rendering:geometricPrecision; text-rendering:geometricPrecision; image-rendering:optimizeQuality; fill-rule:evenodd; clip-rule:evenodd"
viewBox="0 0 195 195"
 xmlns:xlink="http://www.w3.org/1999/xlink">
 <defs>
  <style type="text/css">
   <![CDATA[
    .fil0 {fill:#BED62F;fill-rule:nonzero}
   ]]>
  </style>
 </defs>
 <g id="Camada_x0020_1">
  <metadata id="CorelCorpID_0Corel-Layer"/>
  <path class="fil0" d="M97 18c26,0 29,0 40,0 9,1 14,2 18,3 4,2 7,4 11,8 3,3 5,6 7,11 1,3 3,8 3,18 1,10 1,13 1,39 0,26 0,29 -1,40 0,9 -2,14 -3,18 -2,4 -4,7 -7,11 -4,3 -7,5 -11,7 -4,1 -9,3 -18,3 -11,1 -14,1 -40,1 -26,0 -29,0 -39,-1 -10,0 -15,-2 -18,-3 -5,-2 -8,-4 -11,-7 -4,-4 -6,-7 -8,-11 -1,-4 -2,-9 -3,-18 0,-11 0,-14 0,-40 0,-26 0,-29 0,-39 1,-10 2,-15 3,-18 2,-5 4,-8 8,-11 3,-4 6,-6 11,-8 3,-1 8,-2 18,-3 10,0 13,0 39,0zm98 82l0 -5c0,-24 -1,-28 -1,-38 -1,-10 -2,-17 -5,-23 -2,-7 -5,-12 -11,-18 -5,-5 -11,-8 -17,-11 -6,-2 -13,-4 -24,-4 -10,-1 -13,-1 -37,-1l-5 0c-24,0 -28,0 -38,1 -10,0 -17,2 -23,4 -7,3 -12,6 -18,11 -5,6 -8,11 -11,18 -2,6 -4,13 -4,23 -1,11 -1,14 -1,40 0,27 0,30 1,40 0,11 2,18 4,24 3,6 6,12 11,17 6,6 11,9 18,11 6,3 13,4 23,5 11,0 14,1 40,1 27,0 30,-1 40,-1 11,-1 18,-2 24,-5 6,-2 12,-5 17,-11 6,-5 9,-11 11,-17 3,-6 4,-13 5,-24 0,-10 1,-13 1,-37z"/>
  <path class="fil0" d="M105 79l17 0 -2 18 -15 0 0 53 -22 0 0 -53 -11 0 0 -18 11 0 0 -11c0,-8 2,-14 6,-18 4,-4 10,-6 18,-6l15 0 0 19 -9 0c-2,0 -4,0 -4,0 -1,0 -2,1 -3,1 0,1 0,2 0,3 0,0 0,0 -1,1 0,1 0,1 0,2l0 9z"/>
 </g>
</svg>
