<?xml version="1.0" encoding="UTF-8"?>
<!DOCTYPE svg PUBLIC "-//W3C//DTD SVG 1.1//EN" "http://www.w3.org/Graphics/SVG/1.1/DTD/svg11.dtd">
<!-- Creator: CorelDRAW X8 -->
<svg xmlns="http://www.w3.org/2000/svg" xml:space="preserve" width="40px" height="40px" version="1.1" style="shape-rendering:geometricPrecision; text-rendering:geometricPrecision; image-rendering:optimizeQuality; fill-rule:evenodd; clip-rule:evenodd"
viewBox="0 0 192 192"
 xmlns:xlink="http://www.w3.org/1999/xlink">
 <defs>
  <style type="text/css">
   <![CDATA[
    .fil0 {fill:#BED62F;fill-rule:nonzero}
   ]]>
  </style>
 </defs>
 <g id="Camada_x0020_1">
  <metadata id="CorelCorpID_0Corel-Layer"/>
  <g id="_2505674941664">
   <path class="fil0" d="M96 17c26,0 29,0 39,1 9,0 14,2 18,3 4,2 7,4 11,7 3,4 5,7 7,11 1,4 3,9 3,18 1,10 1,13 1,39 0,26 0,29 -1,39 0,9 -2,14 -3,18 -2,4 -4,7 -7,11 -4,3 -7,5 -11,7 -4,1 -9,3 -18,3 -10,1 -13,1 -39,1 -26,0 -29,0 -39,-1 -9,0 -14,-2 -18,-3 -4,-2 -7,-4 -11,-7 -3,-4 -5,-7 -7,-11 -1,-4 -3,-9 -3,-18 -1,-10 -1,-13 -1,-39 0,-26 0,-29 1,-39 0,-9 2,-14 3,-18 2,-4 4,-7 7,-11 4,-3 7,-5 11,-7 4,-1 9,-3 18,-3 10,-1 13,-1 39,-1zm96 81l0 -4c0,-24 0,-28 -1,-38 0,-10 -2,-17 -4,-23 -3,-6 -6,-12 -11,-17 -6,-5 -11,-9 -17,-11 -6,-2 -13,-4 -23,-4 -10,-1 -14,-1 -38,-1l-4 0c-24,0 -28,0 -38,1 -10,0 -17,2 -23,4 -6,2 -12,6 -17,11 -5,5 -9,11 -11,17 -2,6 -4,13 -4,23 -1,11 -1,14 -1,40 0,26 0,29 1,40 0,10 2,17 4,23 2,6 6,11 11,17 5,5 11,8 17,11 6,2 13,4 23,4 11,1 14,1 40,1 26,0 29,0 40,-1 10,0 17,-2 23,-4 6,-3 11,-6 17,-11 5,-6 8,-11 11,-17 2,-6 4,-13 4,-23 1,-10 1,-14 1,-38z"/>
   <path class="fil0" d="M96 47c-27,0 -49,22 -49,49 0,27 22,49 49,49 27,0 49,-22 49,-49 0,-27 -22,-49 -49,-49zm0 81c-18,0 -32,-14 -32,-32 0,-18 14,-32 32,-32 18,0 32,14 32,32 0,18 -14,32 -32,32z"/>
   <path class="fil0" d="M159 45c0,6 -5,11 -12,11 -6,0 -11,-5 -11,-11 0,-7 5,-12 11,-12 7,0 12,5 12,12z"/>
  </g>
 </g>
</svg>
