<?xml version="1.0" encoding="UTF-8"?>
<!DOCTYPE svg PUBLIC "-//W3C//DTD SVG 1.1//EN" "http://www.w3.org/Graphics/SVG/1.1/DTD/svg11.dtd">
<!-- Creator: CorelDRAW X8 -->
<svg xmlns="http://www.w3.org/2000/svg" xml:space="preserve" width="177px" height="72px" version="1.1" style="shape-rendering:geometricPrecision; text-rendering:geometricPrecision; image-rendering:optimizeQuality; fill-rule:evenodd; clip-rule:evenodd"
viewBox="0 0 31760 12943"
 xmlns:xlink="http://www.w3.org/1999/xlink">
 <defs>
  <style type="text/css">
   <![CDATA[
    .fil1 {fill:#FEFEFE}
    .fil0 {fill:#FEFEFE;fill-rule:nonzero}
   ]]>
  </style>
 </defs>
 <g id="Camada_x0020_1">
  <metadata id="CorelCorpID_0Corel-Layer"/>
  <g id="_2794598777248">
   <path class="fil0" d="M10188 7892l0 -879 161 0 0 879 -161 0zm825 -470c63,89 114,169 153,239l3 0c-5,-114 -7,-198 -7,-250l0 -398 160 0 0 879 -168 0 -285 -405c-50,-70 -102,-151 -155,-243l-4 0c5,107 8,191 8,250l0 398 -161 0 0 -879 168 0 288 409zm947 217c0,-22 -6,-40 -17,-54 -11,-14 -25,-25 -44,-34 -19,-9 -40,-16 -63,-21 -23,-6 -48,-11 -73,-16 -34,-8 -67,-17 -97,-27 -31,-10 -58,-25 -82,-43 -23,-18 -42,-41 -56,-69 -14,-28 -20,-63 -20,-105 0,-47 8,-87 24,-122 16,-34 38,-62 65,-85 28,-22 61,-39 98,-50 37,-12 79,-17 126,-17 46,0 93,4 140,14 47,9 88,20 122,35l0 138c-45,-18 -89,-31 -131,-39 -41,-8 -80,-12 -117,-12 -53,0 -93,9 -122,29 -28,19 -42,48 -42,86 0,23 4,41 14,56 9,14 22,26 38,35 16,10 34,17 55,23 21,6 43,11 66,16 37,8 72,17 106,27 34,10 63,25 90,43 25,19 46,42 61,72 16,30 23,68 23,113 0,48 -9,89 -26,123 -17,35 -42,64 -74,86 -32,23 -71,40 -117,51 -46,11 -96,16 -150,16 -47,0 -94,-5 -140,-14 -46,-10 -84,-23 -115,-40l0 -136c44,19 85,33 127,41 40,9 83,13 126,13 25,0 50,-2 74,-6 25,-4 47,-11 66,-22 19,-10 35,-23 47,-41 12,-17 18,-38 18,-64zm701 253l-161 0 0 -744 -282 0 0 -135 724 0 0 135 -281 0 0 744zm404 0l0 -879 160 0 0 879 -160 0zm727 0l-160 0 0 -744 -282 0 0 -135 724 0 0 135 -282 0 0 744zm767 16c-46,0 -87,-5 -123,-13 -37,-10 -69,-22 -97,-39 -28,-17 -52,-38 -71,-62 -20,-24 -36,-52 -47,-82 -10,-25 -17,-52 -21,-82 -4,-29 -6,-63 -6,-99l0 -518 160 0 0 503c0,62 8,111 23,146 16,39 40,67 72,84 32,17 69,26 112,26 43,0 81,-9 112,-26 32,-17 56,-45 73,-84 14,-35 22,-84 22,-146l0 -503 160 0 0 518c0,36 -2,70 -6,99 -4,30 -11,57 -20,82 -12,30 -28,58 -48,82 -20,24 -44,45 -73,62 -28,17 -61,29 -98,39 -37,8 -78,13 -124,13zm932 -16l-160 0 0 -744 -282 0 0 -135 724 0 0 135 -282 0 0 744z"/>
   <path class="fil0" d="M16510 7452c0,-54 -6,-100 -19,-140 -13,-41 -31,-74 -54,-101 -23,-26 -51,-46 -82,-60 -32,-13 -67,-19 -105,-19 -38,0 -73,6 -104,19 -32,14 -59,34 -82,60 -23,27 -41,60 -54,101 -13,40 -20,86 -20,140 0,53 7,100 20,140 13,40 31,73 54,100 23,27 50,47 82,60 31,13 66,20 104,20 38,0 73,-7 105,-20 31,-13 59,-33 82,-60 23,-27 41,-60 54,-100 13,-40 19,-87 19,-140zm166 0c0,67 -9,128 -28,184 -19,56 -47,104 -83,144 -37,41 -81,72 -134,94 -53,23 -113,34 -181,34 -67,0 -128,-11 -180,-34 -53,-22 -98,-53 -134,-94 -37,-40 -64,-88 -83,-144 -19,-56 -29,-117 -29,-184 0,-67 10,-129 29,-184 19,-56 46,-104 83,-145 36,-40 81,-71 134,-94 52,-22 113,-33 180,-33 68,0 128,11 181,33 53,23 97,54 134,94 36,41 64,89 83,145 19,55 28,117 28,184zm605 440l-160 0 0 -879 556 0 0 135 -396 0 0 227 339 0 0 135 -339 0 0 382zm697 -135l430 0 0 135 -591 0 0 -879 567 0 0 135 -406 0 0 227 349 0 0 135 -349 0 0 247zm599 135l0 -879 231 0c21,0 41,1 62,2 22,2 42,3 62,6 20,3 39,6 58,10 19,3 36,8 52,13 47,15 88,35 123,60 36,26 66,56 90,90 24,35 43,74 55,116 12,43 19,89 19,139 0,47 -6,92 -16,133 -11,42 -26,79 -48,113 -21,35 -48,65 -80,91 -33,26 -71,47 -116,64 -37,14 -79,24 -126,31 -47,7 -100,11 -158,11l-208 0zm226 -135c94,0 167,-13 220,-38 46,-24 81,-58 105,-102 24,-44 36,-100 36,-169 0,-36 -4,-68 -12,-97 -8,-29 -19,-55 -34,-77 -14,-23 -32,-42 -53,-58 -21,-17 -45,-30 -72,-41 -25,-9 -52,-16 -83,-21 -30,-4 -64,-6 -102,-6l-71 0 0 609 66 0zm856 0l430 0 0 135 -590 0 0 -879 566 0 0 135 -406 0 0 227 349 0 0 135 -349 0 0 247zm1245 -480c0,61 -17,113 -51,156 -33,43 -86,74 -156,95l0 2 262 362 -193 0 -238 -341 -110 0 0 341 -160 0 0 -879 265 0c45,0 85,3 123,8 38,5 71,12 97,23 52,19 91,48 119,87 28,39 42,88 42,146zm-407 140c37,0 68,-2 93,-5 25,-3 47,-8 64,-15 32,-12 54,-29 67,-50 12,-21 18,-46 18,-73 0,-24 -5,-45 -14,-63 -10,-18 -27,-32 -50,-43 -15,-7 -34,-12 -57,-15 -23,-4 -52,-5 -86,-5l-114 0 0 269 79 0zm1102 251l-331 0 -85 224 -170 0 347 -879 146 0 347 879 -169 0 -85 -224zm-167 -444c-31,92 -59,169 -83,230l-29 80 227 0 -29 -79c-24,-63 -52,-139 -83,-231l-3 0zm705 -211l0 744 409 0 0 135 -569 0 0 -879 160 0zm834 879l0 -879 231 0c21,0 42,1 63,2 21,2 42,3 62,6 20,3 39,6 58,10 18,3 36,8 51,13 47,15 88,35 124,60 35,26 65,56 89,90 25,35 43,74 56,116 12,43 18,89 18,139 0,47 -5,92 -16,133 -10,42 -26,79 -47,113 -22,35 -48,65 -81,91 -33,26 -71,47 -115,64 -37,14 -79,24 -126,31 -47,7 -100,11 -159,11l-208 0zm227 -135c93,0 166,-13 219,-38 46,-24 82,-58 106,-102 23,-44 35,-100 35,-169 0,-36 -4,-68 -11,-97 -8,-29 -19,-55 -34,-77 -15,-23 -33,-42 -54,-58 -21,-17 -45,-30 -71,-41 -25,-9 -53,-16 -83,-21 -31,-4 -65,-6 -103,-6l-70 0 0 609 66 0zm855 0l430 0 0 135 -590 0 0 -879 567 0 0 135 -407 0 0 227 349 0 0 135 -349 0 0 247z"/>
   <path class="fil0" d="M10349 9399l430 0 0 135 -591 0 0 -879 567 0 0 135 -406 0 0 227 349 0 0 135 -349 0 0 247zm599 135l0 -879 231 0c20,0 41,1 62,3 22,1 42,3 62,5 20,3 39,6 58,10 19,4 36,8 52,13 46,15 87,35 123,61 36,25 66,55 90,90 24,34 42,73 55,116 12,42 18,88 18,138 0,48 -5,92 -15,133 -11,42 -27,80 -48,114 -21,34 -48,64 -81,90 -32,26 -71,47 -115,64 -37,14 -79,25 -126,31 -47,7 -100,11 -158,11l-208 0zm226 -135c94,0 167,-13 219,-38 47,-23 82,-57 106,-101 24,-45 36,-101 36,-170 0,-36 -4,-68 -12,-97 -8,-29 -19,-55 -34,-77 -14,-23 -33,-42 -54,-58 -21,-17 -45,-30 -71,-41 -25,-9 -53,-16 -83,-20 -30,-5 -65,-7 -102,-7l-71 0 0 609 66 0zm1058 151c-46,0 -87,-4 -124,-13 -36,-9 -68,-22 -96,-39 -28,-17 -52,-37 -72,-62 -19,-24 -35,-52 -47,-82 -9,-25 -16,-52 -20,-82 -4,-29 -7,-63 -7,-99l0 -518 161 0 0 503c0,62 7,111 22,146 17,39 41,67 73,84 31,18 69,26 112,26 43,0 80,-8 112,-26 31,-17 55,-45 72,-84 15,-35 22,-84 22,-146l0 -503 161 0 0 518c0,36 -2,70 -6,99 -4,30 -11,57 -21,82 -12,30 -28,58 -48,82 -19,25 -43,45 -72,62 -28,17 -61,30 -98,39 -37,9 -79,13 -124,13zm1000 -776c-44,0 -84,7 -121,22 -36,14 -68,35 -94,63 -27,27 -47,61 -62,102 -15,40 -22,87 -22,139 0,52 6,97 20,137 13,39 33,71 58,98 25,26 56,46 93,59 36,13 77,20 123,20 33,0 67,-2 101,-7 35,-5 67,-13 97,-22l0 137c-30,9 -63,16 -98,21 -36,5 -72,7 -110,7 -74,0 -140,-10 -196,-32 -56,-21 -103,-51 -140,-90 -38,-39 -67,-85 -86,-139 -19,-54 -28,-114 -28,-179 0,-67 10,-129 30,-187 21,-57 50,-107 88,-149 38,-42 86,-75 143,-99 58,-24 122,-36 195,-37 37,0 72,2 105,7 33,6 63,13 89,22l0 135c-34,-10 -67,-18 -97,-22 -30,-4 -59,-6 -88,-6zm856 537l-330 0 -85 223 -171 0 347 -879 147 0 346 879 -169 0 -85 -223zm-166 -444c-31,91 -59,168 -83,229l-30 80 228 0 -30 -79c-24,-62 -51,-139 -83,-230l-2 0z"/>
   <path class="fil0" d="M14740 9538c-54,-11 -102,-29 -142,-54 -41,-25 -75,-56 -102,-93 -27,-37 -48,-79 -61,-127 -14,-47 -21,-99 -21,-154 0,-67 10,-130 31,-187 20,-58 50,-108 88,-150 39,-42 87,-75 144,-99 56,-24 121,-36 193,-36 38,0 74,2 106,7 32,6 62,13 89,22l0 137c-35,-11 -67,-19 -99,-24 -30,-4 -59,-6 -87,-6 -43,0 -84,7 -120,22 -37,14 -69,35 -95,63 -26,27 -47,61 -62,102 -15,40 -22,87 -22,139 0,52 7,97 20,137 14,39 33,71 58,98 25,26 56,46 92,59 37,13 78,20 124,20 35,0 70,-3 106,-9 35,-6 66,-13 92,-22l0 139c-31,8 -64,15 -99,20 -35,5 -72,8 -110,8 -6,0 -13,0 -18,-1 -6,0 -9,0 -9,0l-17 62c17,3 34,7 48,13 15,6 27,13 38,23 11,9 20,20 26,33 6,12 9,26 9,41 0,19 -5,36 -13,52 -9,17 -22,31 -39,43 -17,12 -38,22 -64,29 -27,7 -56,10 -87,10 -17,0 -33,-1 -51,-3 -18,-2 -31,-5 -40,-9l0 -96c9,4 22,6 39,8 17,3 32,4 45,4 17,0 31,-2 42,-4 11,-3 21,-6 27,-10 6,-5 11,-9 14,-14 2,-6 4,-10 4,-15 0,-13 -10,-23 -29,-30 -18,-7 -48,-10 -89,-11l41 -137zm996 -227l-331 0 -85 223 -170 0 347 -879 146 0 347 879 -170 0 -84 -223zm-167 -444c-31,91 -59,168 -83,229l-30 80 228 0 -29 -79c-24,-62 -52,-139 -83,-230l-3 0zm-96 -421c17,0 34,3 50,8 17,6 32,13 47,21 15,8 29,15 42,21 13,7 25,10 35,10 12,0 20,-4 25,-12 5,-9 8,-23 8,-43l102 0c1,6 1,14 1,21 0,17 -2,34 -6,51 -3,17 -10,32 -19,45 -10,14 -22,25 -37,32 -16,8 -34,12 -55,12 -17,0 -34,-2 -50,-9 -16,-5 -32,-12 -46,-19 -15,-8 -29,-16 -43,-22 -13,-7 -25,-10 -35,-10 -12,0 -20,4 -25,12 -5,9 -8,23 -8,43l-102 0c-1,-7 -1,-14 -1,-22 0,-17 2,-34 6,-50 3,-17 10,-32 19,-46 9,-13 22,-24 37,-32 16,-7 34,-11 55,-11z"/>
   <path class="fil0" d="M16748 9094c0,-54 -7,-100 -20,-140 -13,-40 -31,-74 -54,-101 -23,-26 -51,-46 -82,-59 -32,-14 -67,-20 -104,-20 -38,0 -73,6 -105,20 -31,13 -59,33 -82,59 -23,27 -41,61 -54,101 -13,40 -20,86 -20,140 0,53 7,100 20,140 13,41 31,74 54,100 23,27 51,47 82,60 32,13 67,20 105,20 37,0 72,-7 104,-20 31,-13 59,-33 82,-60 23,-26 41,-59 54,-100 13,-40 20,-87 20,-140zm166 0c0,67 -10,129 -29,184 -19,56 -47,104 -83,144 -36,41 -81,72 -134,95 -53,22 -113,33 -180,33 -68,0 -128,-11 -181,-33 -53,-23 -98,-54 -134,-95 -36,-40 -64,-88 -83,-144 -19,-55 -28,-117 -28,-184 0,-67 9,-128 28,-184 19,-56 47,-104 83,-145 36,-40 81,-71 134,-94 53,-22 113,-33 181,-33 67,0 127,11 180,33 53,23 98,54 134,94 36,41 64,89 83,145 19,56 29,117 29,184z"/>
   <polygon class="fil0" points="17078,9359 17258,9359 17118,9804 16952,9804 "/>
   <path class="fil0" d="M18123 8774c-43,0 -84,7 -120,22 -37,14 -69,35 -95,63 -26,27 -47,61 -62,102 -15,40 -22,87 -22,139 0,52 7,97 20,137 14,39 33,71 59,98 25,26 55,46 92,59 36,13 77,20 123,20 34,0 67,-2 102,-7 34,-5 66,-13 96,-22l0 137c-30,9 -63,16 -98,21 -36,5 -72,7 -110,7 -74,0 -139,-10 -195,-32 -56,-21 -103,-51 -141,-90 -38,-39 -66,-85 -85,-139 -19,-54 -29,-114 -29,-179 0,-67 10,-129 31,-187 20,-57 49,-107 87,-149 39,-42 86,-75 144,-99 57,-24 122,-36 194,-37 37,0 72,2 105,7 33,6 63,13 90,22l0 135c-35,-10 -68,-18 -98,-22 -30,-4 -59,-6 -88,-6zm356 760l0 -879 160 0 0 879 -160 0zm529 -135l430 0 0 135 -590 0 0 -879 566 0 0 135 -406 0 0 227 349 0 0 135 -349 0 0 247zm60 -953l135 0 141 162 -135 0 -72 -83 -3 0 -72 83 -135 0 141 -162zm995 618c62,90 113,169 153,239l3 0c-5,-114 -7,-198 -7,-250l0 -398 160 0 0 879 -168 0 -285 -405c-50,-70 -102,-151 -155,-243l-4 0c5,108 8,191 8,250l0 398 -161 0 0 -879 168 0 288 409zm943 -290c-43,0 -84,7 -120,22 -37,14 -69,35 -95,63 -26,27 -47,61 -62,102 -15,40 -22,87 -22,139 0,52 7,97 20,137 14,39 33,71 58,98 26,26 57,46 93,59 36,13 77,20 123,20 34,0 68,-2 102,-7 34,-5 66,-13 96,-22l0 137c-30,9 -63,16 -98,21 -35,5 -72,7 -110,7 -74,0 -139,-10 -195,-32 -56,-21 -103,-51 -141,-90 -38,-39 -66,-85 -85,-139 -19,-54 -29,-114 -29,-179 0,-67 11,-129 31,-187 20,-57 49,-107 88,-149 38,-42 85,-75 143,-99 57,-24 122,-36 194,-37 37,0 72,2 105,7 33,6 63,13 90,22l0 135c-35,-10 -68,-18 -98,-22 -30,-4 -59,-6 -88,-6zm356 760l0 -879 160 0 0 879 -160 0zm870 -223l-331 0 -85 223 -170 0 347 -879 146 0 347 879 -169 0 -85 -223zm-167 -444c-31,91 -59,168 -83,229l-30 80 228 0 -29 -79c-24,-62 -52,-139 -83,-230l-3 0zm981 532l429 0 0 135 -590 0 0 -879 567 0 0 135 -406 0 0 227 349 0 0 135 -349 0 0 247z"/>
   <path class="fil0" d="M24187 9534l-161 0 0 -744 -282 0 0 -135 724 0 0 135 -281 0 0 744zm565 -135l430 0 0 135 -591 0 0 -879 567 0 0 135 -406 0 0 227 349 0 0 135 -349 0 0 247zm1025 -625c-44,0 -84,7 -121,22 -37,14 -68,35 -94,63 -27,27 -47,61 -62,102 -15,40 -22,87 -22,139 0,52 6,97 20,137 13,39 33,71 58,98 25,26 56,46 92,59 37,13 78,20 124,20 33,0 67,-2 101,-7 35,-5 67,-13 97,-22l0 137c-31,9 -63,16 -98,21 -36,5 -72,7 -110,7 -74,0 -139,-10 -195,-32 -57,-21 -104,-51 -141,-90 -38,-39 -67,-85 -86,-139 -19,-54 -28,-114 -28,-179 0,-67 10,-129 30,-187 21,-57 50,-107 88,-149 38,-42 86,-75 143,-99 58,-24 123,-36 195,-37 37,0 72,2 105,7 33,6 63,13 89,22l0 135c-34,-10 -67,-18 -97,-22 -30,-4 -59,-6 -88,-6zm811 290c63,90 114,169 153,239l4 0c-5,-114 -8,-198 -8,-250l0 -398 160 0 0 879 -167 0 -286 -405c-50,-70 -101,-151 -155,-243l-4 0c5,108 8,191 8,250l0 398 -161 0 0 -879 168 0 288 409zm1165 30c0,-54 -7,-100 -20,-140 -13,-40 -31,-74 -54,-101 -23,-26 -50,-46 -82,-59 -32,-14 -67,-20 -105,-20 -37,0 -72,6 -104,20 -32,13 -59,33 -82,59 -23,27 -41,61 -54,101 -13,40 -20,86 -20,140 0,53 7,100 20,140 13,41 31,74 54,100 23,27 50,47 82,60 32,13 67,20 104,20 38,0 73,-7 105,-20 32,-13 59,-33 82,-60 23,-26 41,-59 54,-100 13,-40 20,-87 20,-140zm166 0c0,67 -10,129 -29,184 -19,56 -47,104 -83,144 -36,41 -81,72 -134,95 -53,22 -113,33 -181,33 -67,0 -127,-11 -180,-33 -53,-23 -98,-54 -134,-95 -36,-40 -64,-88 -83,-144 -19,-55 -29,-117 -29,-184 0,-67 10,-128 29,-184 19,-56 47,-104 83,-145 36,-40 81,-71 134,-94 53,-22 113,-33 180,-33 68,0 128,11 181,33 53,23 98,54 134,94 36,41 64,89 83,145 19,56 29,117 29,184zm329 -439l0 744 409 0 0 135 -569 0 0 -879 160 0z"/>
   <path class="fil0" d="M29402 9094c0,-54 -7,-100 -20,-140 -13,-40 -31,-74 -54,-101 -23,-26 -51,-46 -82,-59 -32,-14 -67,-20 -105,-20 -37,0 -72,6 -104,20 -32,13 -59,33 -82,59 -23,27 -41,61 -54,101 -13,40 -20,86 -20,140 0,53 7,100 20,140 13,41 31,74 54,100 23,27 50,47 82,60 32,13 67,20 104,20 38,0 73,-7 105,-20 31,-13 59,-33 82,-60 23,-26 41,-59 54,-100 13,-40 20,-87 20,-140zm165 0c0,67 -9,129 -28,184 -19,56 -47,104 -83,144 -36,41 -81,72 -134,95 -53,22 -113,33 -181,33 -67,0 -127,-11 -180,-33 -53,-23 -98,-54 -134,-95 -37,-40 -64,-88 -83,-144 -19,-55 -29,-117 -29,-184 0,-67 10,-128 29,-184 19,-56 46,-104 83,-145 36,-40 81,-71 134,-94 53,-22 113,-33 180,-33 68,0 128,11 181,33 53,23 98,54 134,94 36,41 64,89 83,145 19,56 28,117 28,184zm712 104l-196 0 0 -135 357 0 0 444c-13,5 -30,10 -50,15 -20,5 -43,10 -68,14 -25,4 -51,8 -77,10 -27,3 -53,4 -79,4 -79,0 -147,-10 -206,-32 -58,-21 -107,-51 -146,-89 -39,-39 -68,-85 -88,-138 -19,-53 -29,-112 -29,-177 0,-45 6,-89 16,-130 10,-42 25,-80 45,-115 20,-35 44,-67 73,-96 28,-28 60,-53 97,-73 36,-20 76,-35 119,-46 44,-11 90,-16 140,-16 44,0 85,3 125,9 40,7 72,15 97,23l0 136c-34,-10 -68,-19 -103,-24 -34,-6 -69,-8 -104,-8 -48,0 -92,7 -133,21 -42,14 -78,36 -108,63 -30,28 -54,62 -71,103 -18,41 -27,88 -27,142 1,103 28,182 81,233 54,52 129,78 227,78 19,0 38,-1 57,-3 19,-2 37,-4 51,-7l0 -206zm357 336l0 -879 160 0 0 879 -160 0zm870 -223l-331 0 -85 223 -170 0 346 -879 147 0 347 879 -170 0 -84 -223zm-167 -444c-31,91 -59,168 -83,229l-30 80 228 0 -30 -79c-24,-62 -51,-139 -82,-230l-3 0z"/>
   <path class="fil0" d="M10471 10819l-144 0 0 264c0,37 -8,66 -23,85 -14,19 -33,29 -56,29 -23,0 -42,-9 -57,-29 -14,-19 -22,-47 -22,-84l0 -717c0,-42 8,-71 24,-89 16,-18 41,-27 76,-27l202 0c59,0 105,6 137,17 32,11 59,28 83,52 23,25 40,55 52,91 12,35 18,75 18,119 0,95 -24,167 -73,216 -49,49 -121,73 -217,73zm-39 -426l-105 0 0 285 105 0c37,0 68,-5 93,-15 25,-9 44,-24 57,-45 13,-21 20,-49 20,-83 0,-42 -10,-75 -30,-101 -23,-27 -69,-41 -140,-41zm972 4l-354 0 0 229 326 0c24,0 42,6 53,19 12,13 18,30 18,51 0,21 -6,38 -17,51 -12,14 -30,20 -54,20l-326 0 0 265 366 0c24,0 43,7 56,21 12,13 19,32 19,55 0,22 -7,39 -19,53 -13,14 -32,21 -56,21l-427 0c-34,0 -59,-10 -74,-28 -15,-18 -23,-47 -23,-88l0 -699c0,-27 4,-49 11,-66 6,-17 17,-30 31,-38 14,-8 32,-12 55,-12l415 0c25,0 43,7 55,20 13,14 19,31 19,53 0,22 -6,40 -19,53 -12,13 -30,20 -55,20zm422 387l-55 0 0 299c0,39 -7,68 -21,86 -15,19 -34,28 -57,28 -25,0 -44,-10 -58,-29 -14,-19 -21,-48 -21,-85l0 -716c0,-41 8,-70 23,-88 15,-18 40,-28 74,-28l255 0c35,0 66,2 91,6 25,4 47,11 68,22 24,12 45,30 64,52 19,23 33,50 43,80 9,30 14,62 14,96 0,70 -16,125 -49,167 -32,41 -82,71 -148,88 28,18 54,44 80,78 25,35 48,72 68,111 20,39 35,74 46,106 11,31 17,53 17,65 0,12 -3,24 -10,36 -6,12 -15,22 -26,29 -12,7 -25,10 -40,10 -17,0 -32,-5 -44,-15 -12,-10 -22,-22 -31,-37 -9,-15 -20,-38 -35,-68l-63 -125c-23,-46 -43,-81 -61,-105 -18,-24 -36,-41 -54,-50 -19,-8 -42,-13 -70,-13zm91 -391l-146 0 0 256 141 0c38,0 70,-4 96,-12 25,-8 45,-21 58,-40 14,-19 21,-45 21,-78 0,-26 -5,-48 -17,-68 -10,-20 -26,-34 -45,-44 -18,-9 -54,-14 -108,-14zm683 -44l302 548 0 -553c0,-36 7,-63 20,-81 12,-18 30,-27 52,-27 22,0 40,9 53,27 13,18 19,45 19,81l0 731c0,82 -28,122 -84,122 -14,0 -27,-2 -38,-7 -12,-5 -22,-13 -32,-23 -10,-11 -19,-23 -27,-37 -9,-14 -17,-29 -26,-44l-295 -541 0 544c0,36 -6,63 -20,81 -14,18 -32,27 -53,27 -22,0 -40,-9 -54,-27 -13,-19 -20,-46 -20,-81l0 -717c0,-30 3,-54 9,-71 6,-20 17,-35 33,-47 16,-12 32,-18 50,-18 15,0 27,3 37,8 10,6 18,13 26,22 8,10 15,22 23,37 8,14 17,30 25,46z"/>
   <path class="fil0" d="M13701 11076l-37 -117 -316 0 -37 120c-14,46 -26,78 -37,94 -10,16 -26,24 -50,24 -20,0 -37,-8 -52,-26 -15,-17 -23,-37 -23,-59 0,-13 2,-26 5,-39 4,-14 10,-32 18,-57l198 -603c6,-18 13,-38 21,-63 8,-24 16,-44 25,-60 9,-16 21,-29 35,-39 15,-10 33,-15 55,-15 22,0 40,5 55,15 14,10 26,22 35,38 9,16 17,33 23,51 6,18 14,42 23,72l203 599c16,46 24,79 24,100 0,21 -8,41 -23,59 -15,18 -33,27 -54,27 -12,0 -23,-2 -32,-8 -8,-5 -16,-12 -22,-21 -6,-9 -12,-23 -19,-42 -7,-19 -13,-36 -18,-50zm-311 -258l232 0 -117 -383 -115 383zm856 223l-124 -592 0 642c0,35 -7,62 -20,80 -14,17 -31,26 -53,26 -21,0 -38,-9 -52,-26 -13,-18 -20,-44 -20,-80l0 -736c0,-41 9,-68 27,-82 18,-14 41,-22 71,-22l49 0c29,0 50,4 63,10 14,6 24,18 30,34 6,17 14,44 22,81l112 509 113 -509c8,-37 16,-64 22,-81 6,-16 16,-28 29,-34 13,-6 35,-10 64,-10l48 0c30,0 54,8 72,22 17,14 26,41 26,82l0 736c0,35 -6,62 -20,80 -13,17 -30,26 -52,26 -21,0 -39,-9 -52,-26 -13,-18 -20,-45 -20,-80l0 -642 -124 592c-8,39 -15,67 -20,85 -5,18 -15,34 -28,49 -14,15 -33,22 -58,22 -18,0 -34,-5 -46,-14 -13,-10 -23,-22 -30,-36 -7,-15 -13,-32 -17,-50 -4,-18 -8,-36 -12,-56zm972 141l-237 0c-34,0 -59,-10 -73,-28 -15,-18 -22,-48 -22,-88l0 -699c0,-41 7,-71 22,-88 15,-18 39,-28 73,-28l252 0c37,0 69,3 96,9 27,5 52,16 73,31 18,14 34,30 49,50 14,20 25,42 32,67 7,24 11,50 11,77 0,93 -39,161 -116,204 102,39 153,115 153,227 0,52 -12,99 -34,141 -22,42 -52,73 -90,92 -23,12 -50,20 -81,25 -31,5 -67,8 -108,8zm-11 -414l-164 0 0 272 169 0c106,0 159,-46 159,-138 0,-47 -13,-81 -41,-102 -27,-21 -69,-32 -123,-32zm-164 -375l0 240 144 0c39,0 69,-4 91,-13 21,-9 37,-26 49,-51 9,-17 13,-37 13,-59 0,-47 -14,-78 -42,-94 -28,-15 -70,-23 -127,-23l-128 0z"/>
   <path class="fil0" d="M15626 10797l0 -447c0,-38 7,-66 22,-86 14,-19 33,-28 56,-28 24,0 43,9 58,28 14,20 21,48 21,86l0 458c0,51 5,95 15,130 10,35 27,62 51,81 25,19 60,29 104,29 62,0 105,-20 130,-59 26,-39 38,-98 38,-178l0 -461c0,-38 7,-67 22,-86 14,-19 33,-28 56,-28 24,0 43,9 58,28 14,19 22,48 22,86l0 447c0,73 -6,134 -18,182 -12,49 -34,91 -67,128 -28,32 -61,54 -99,69 -37,14 -81,21 -131,21 -59,0 -111,-8 -154,-23 -43,-15 -78,-39 -105,-72 -27,-32 -47,-73 -60,-124 -13,-50 -19,-111 -19,-181zm1484 91c0,30 -6,61 -18,96 -12,34 -32,68 -58,101 -26,34 -59,60 -100,81 -40,21 -87,31 -142,31 -40,0 -78,-4 -111,-14 -34,-9 -64,-23 -91,-43 -28,-20 -53,-46 -76,-78 -20,-29 -38,-61 -52,-97 -15,-37 -26,-75 -33,-116 -7,-41 -11,-85 -11,-131 0,-75 9,-142 27,-201 19,-59 45,-110 79,-152 34,-42 73,-74 119,-96 45,-22 94,-33 145,-33 63,0 119,15 168,45 49,30 87,67 113,111 26,44 39,86 39,125 0,22 -7,41 -19,57 -13,17 -28,25 -46,25 -20,0 -35,-6 -45,-17 -10,-11 -22,-31 -34,-59 -21,-46 -44,-81 -72,-104 -28,-22 -62,-34 -103,-34 -64,0 -116,30 -154,88 -38,59 -57,143 -57,251 0,72 8,133 25,181 17,48 41,83 72,107 31,24 67,36 109,36 45,0 83,-14 115,-41 31,-26 54,-66 70,-118 7,-24 15,-44 25,-60 10,-15 26,-23 48,-23 18,0 35,8 48,24 13,15 20,35 20,58zm482 -652c81,0 150,19 208,59 57,39 101,94 131,166 29,72 44,157 44,254 0,72 -8,137 -24,196 -17,59 -41,110 -73,153 -33,43 -73,76 -120,99 -47,23 -101,34 -162,34 -61,0 -115,-11 -163,-35 -48,-23 -88,-57 -120,-99 -33,-43 -57,-94 -73,-154 -17,-60 -25,-125 -25,-195 0,-71 9,-137 26,-197 17,-59 42,-110 74,-152 33,-42 72,-74 119,-96 46,-22 99,-33 158,-33zm224 478c0,-68 -10,-127 -28,-177 -18,-50 -44,-88 -78,-113 -34,-26 -74,-39 -118,-39 -31,0 -60,7 -87,21 -26,15 -49,35 -68,62 -20,28 -35,62 -46,104 -11,42 -16,90 -16,142 0,53 5,101 16,143 11,43 27,79 47,107 21,28 44,49 70,63 26,14 55,21 87,21 40,0 77,-12 110,-36 34,-24 61,-62 81,-112 20,-50 30,-113 30,-186z"/>
   <path class="fil0" d="M10746 12362c0,26 -5,53 -15,83 -11,30 -27,59 -49,88 -23,29 -51,53 -85,71 -35,17 -75,27 -121,27 -35,0 -67,-4 -95,-13 -29,-8 -55,-20 -78,-37 -23,-17 -45,-40 -64,-68 -18,-25 -33,-53 -45,-85 -12,-31 -21,-65 -28,-100 -6,-36 -9,-74 -9,-114 0,-65 8,-123 23,-174 16,-52 38,-96 67,-132 29,-37 62,-65 101,-84 39,-19 80,-28 124,-28 54,0 101,13 143,39 42,26 74,58 96,96 22,39 34,75 34,109 0,19 -6,35 -17,50 -11,14 -24,21 -39,21 -17,0 -30,-5 -38,-15 -9,-10 -19,-27 -29,-51 -18,-40 -38,-70 -62,-90 -23,-20 -52,-30 -87,-30 -55,0 -99,26 -131,77 -33,51 -49,124 -49,218 0,63 7,115 21,156 15,42 35,73 62,94 26,20 57,31 93,31 38,0 71,-12 97,-35 27,-24 47,-58 60,-103 6,-21 13,-39 22,-52 8,-13 21,-20 40,-20 16,0 30,7 41,20 11,14 17,31 17,51zm423 184c-30,28 -59,49 -86,63 -28,15 -60,22 -94,22 -32,0 -59,-8 -83,-23 -24,-16 -43,-36 -56,-62 -12,-27 -19,-55 -19,-85 0,-41 11,-76 32,-105 22,-29 51,-49 88,-59 8,-2 27,-7 58,-14 31,-8 58,-15 80,-22 22,-6 46,-14 72,-23 -2,-40 -8,-69 -20,-87 -12,-19 -35,-28 -72,-28 -31,0 -55,5 -70,16 -16,10 -30,26 -41,48 -11,21 -19,35 -24,42 -5,7 -15,10 -30,10 -14,0 -26,-5 -36,-16 -10,-11 -15,-25 -15,-42 0,-26 8,-52 23,-77 16,-25 39,-46 72,-62 32,-16 73,-24 121,-24 54,0 97,8 128,23 31,16 52,41 65,74 13,34 20,79 20,135 0,35 -1,65 -1,90 0,24 0,52 0,82 0,28 3,58 11,88 8,31 12,51 12,59 0,16 -6,30 -18,42 -12,13 -26,20 -41,20 -12,0 -25,-8 -37,-22 -12,-15 -25,-35 -39,-63zm-8 -218c-18,8 -45,17 -79,26 -34,9 -58,15 -71,20 -14,4 -26,12 -38,24 -12,13 -18,30 -18,52 0,23 7,42 21,58 14,16 33,24 55,24 25,0 47,-6 68,-19 20,-13 35,-30 45,-51 11,-22 17,-60 17,-112l0 -22zm654 8l0 200c0,31 -6,55 -17,71 -12,16 -28,24 -47,24 -18,0 -33,-8 -45,-24 -11,-16 -17,-40 -17,-71l0 -240c0,-38 -1,-67 -4,-88 -1,-21 -7,-38 -17,-52 -9,-13 -24,-20 -44,-20 -40,0 -67,17 -79,51 -13,34 -20,82 -20,145l0 204c0,31 -5,55 -17,71 -12,16 -27,24 -46,24 -18,0 -33,-8 -45,-24 -12,-16 -18,-40 -18,-71l0 -430c0,-29 5,-50 16,-65 10,-15 25,-22 42,-22 17,0 31,7 42,21 11,13 17,33 17,57l0 14c21,-31 44,-54 68,-69 25,-14 52,-22 82,-22 31,0 57,8 79,23 23,15 41,38 55,68 21,-31 43,-54 67,-68 24,-15 50,-23 79,-23 34,0 62,8 87,25 24,16 42,39 55,69 10,27 15,70 15,128l0 294c0,31 -6,55 -17,71 -12,16 -28,24 -47,24 -18,0 -34,-8 -45,-24 -12,-16 -18,-40 -18,-71l0 -253c0,-32 -1,-58 -4,-78 -2,-19 -8,-35 -18,-49 -10,-13 -25,-20 -45,-20 -16,0 -32,6 -46,18 -15,12 -26,27 -34,48 -9,25 -14,70 -14,134zm521 -232l0 18c24,-35 48,-61 73,-77 25,-16 53,-25 84,-25 38,0 73,12 105,36 32,24 57,59 75,105 19,46 28,100 28,163 0,46 -5,88 -16,127 -10,39 -25,71 -44,98 -19,26 -41,46 -66,60 -25,14 -53,22 -82,22 -35,0 -64,-9 -88,-26 -24,-18 -47,-43 -69,-76l0 226c0,66 -19,99 -59,99 -23,0 -38,-9 -46,-26 -7,-17 -11,-42 -11,-74l0 -650c0,-28 5,-49 16,-64 10,-14 24,-21 41,-21 18,0 32,7 43,22 11,15 16,36 16,63zm241 218c0,-39 -4,-73 -15,-102 -9,-28 -23,-50 -41,-65 -17,-16 -37,-23 -58,-23 -34,0 -63,16 -86,49 -23,33 -35,81 -35,144 0,60 12,106 35,139 23,34 52,50 86,50 20,0 39,-7 57,-21 17,-15 31,-37 42,-66 10,-29 15,-64 15,-105zm542 224l0 -20c-15,23 -30,42 -46,58 -17,15 -34,27 -53,34 -20,8 -42,11 -66,11 -30,0 -57,-7 -80,-22 -24,-15 -42,-36 -55,-62 -15,-32 -23,-78 -23,-138l0 -298c0,-30 6,-53 17,-68 11,-14 26,-22 44,-22 18,0 33,8 45,23 11,15 17,37 17,67l0 241c0,35 2,64 7,87 5,24 14,43 26,56 12,13 29,20 51,20 21,0 40,-7 58,-22 19,-15 32,-35 40,-59 7,-22 11,-68 11,-140l0 -183c0,-30 5,-52 17,-67 11,-15 26,-23 45,-23 18,0 33,8 44,22 11,15 16,38 16,68l0 436c0,28 -5,50 -15,64 -11,14 -25,22 -42,22 -17,0 -31,-8 -42,-23 -11,-15 -16,-36 -16,-62zm634 -112c0,42 -8,77 -24,107 -17,29 -41,51 -74,67 -32,15 -71,23 -118,23 -44,0 -82,-9 -113,-25 -32,-17 -55,-37 -70,-62 -15,-25 -22,-50 -22,-75 0,-16 4,-30 14,-42 10,-12 22,-18 37,-18 12,0 22,4 29,12 7,8 14,19 20,33 13,26 28,46 45,60 18,13 42,19 72,19 25,0 45,-6 60,-20 16,-13 24,-28 24,-46 0,-26 -8,-45 -24,-58 -17,-12 -44,-23 -81,-34 -42,-13 -77,-27 -103,-41 -27,-14 -48,-33 -64,-56 -16,-23 -24,-51 -24,-85 0,-30 7,-59 22,-86 15,-27 36,-48 65,-64 29,-16 63,-24 104,-24 32,0 61,4 86,12 25,8 46,19 63,33 17,13 30,28 39,45 9,17 13,32 13,49 0,17 -4,31 -14,42 -9,11 -23,16 -40,16 -13,0 -24,-4 -33,-13 -8,-9 -18,-22 -30,-40 -9,-14 -20,-26 -33,-35 -12,-9 -29,-13 -51,-13 -22,0 -41,6 -55,17 -15,12 -22,26 -22,44 0,16 5,29 16,38 10,11 25,19 43,26 19,6 44,14 76,24 38,11 69,25 94,41 24,15 42,34 55,56 12,21 18,46 18,73zm947 -145l0 155c0,20 -1,37 -5,49 -3,12 -9,23 -18,33 -9,10 -20,19 -34,29 -40,26 -78,45 -115,58 -37,12 -78,18 -121,18 -51,0 -97,-10 -139,-29 -42,-19 -77,-47 -107,-83 -29,-37 -52,-81 -68,-132 -15,-52 -23,-110 -23,-174 0,-63 8,-120 23,-172 15,-52 38,-96 68,-133 29,-36 65,-64 108,-83 43,-20 91,-29 145,-29 45,0 84,7 118,22 34,14 62,32 84,54 21,22 37,46 48,70 11,25 16,47 16,66 0,20 -6,38 -19,52 -12,15 -27,22 -45,22 -9,0 -18,-3 -27,-8 -9,-6 -17,-13 -23,-23 -16,-32 -30,-55 -42,-72 -11,-16 -26,-29 -46,-40 -19,-11 -44,-17 -74,-17 -31,0 -59,7 -83,20 -24,13 -45,32 -62,56 -17,25 -31,55 -40,91 -9,37 -13,76 -13,120 0,95 17,167 53,219 35,51 85,76 149,76 30,0 60,-5 87,-15 27,-10 55,-24 82,-42l0 -131 -103 0c-25,0 -44,-5 -57,-14 -12,-9 -19,-25 -19,-47 0,-18 6,-33 16,-45 11,-11 25,-17 44,-17l152 0c18,0 34,2 47,6 13,4 23,13 31,27 8,14 12,35 12,63zm430 257c-30,28 -58,49 -86,63 -28,15 -59,22 -94,22 -31,0 -59,-8 -83,-23 -24,-16 -42,-36 -55,-62 -13,-27 -19,-55 -19,-85 0,-41 10,-76 32,-105 21,-29 50,-49 88,-59 7,-2 27,-7 58,-14 31,-8 57,-15 79,-22 22,-6 46,-14 72,-23 -2,-40 -8,-69 -20,-87 -11,-19 -35,-28 -71,-28 -32,0 -55,5 -71,16 -16,10 -29,26 -40,48 -12,21 -20,35 -24,42 -5,7 -15,10 -30,10 -14,0 -26,-5 -36,-16 -10,-11 -15,-25 -15,-42 0,-26 7,-52 23,-77 15,-25 39,-46 71,-62 33,-16 73,-24 122,-24 54,0 96,8 127,23 31,16 53,41 66,74 13,34 19,79 19,135 0,35 0,65 0,90 0,24 -1,52 -1,82 0,28 4,58 12,88 7,31 11,51 11,59 0,16 -6,30 -18,42 -12,13 -25,20 -40,20 -13,0 -25,-8 -37,-22 -13,-15 -26,-35 -40,-63zm-8 -218c-18,8 -44,17 -79,26 -34,9 -58,15 -71,20 -13,4 -26,12 -38,24 -12,13 -18,30 -18,52 0,23 7,42 21,58 14,16 33,24 56,24 24,0 47,-6 67,-19 21,-13 36,-30 45,-51 11,-22 17,-60 17,-112l0 -22zm368 85l0 126c0,31 -6,53 -18,69 -12,15 -26,23 -44,23 -18,0 -33,-8 -44,-24 -11,-15 -17,-38 -17,-68l0 -418c0,-68 20,-102 60,-102 20,0 35,8 44,24 9,16 14,39 15,70 14,-31 29,-54 45,-70 15,-16 36,-24 62,-24 26,0 51,8 75,24 24,16 36,37 36,63 0,18 -5,33 -15,45 -10,12 -22,18 -34,18 -4,0 -15,-3 -32,-10 -17,-7 -33,-10 -46,-10 -18,0 -33,6 -44,17 -11,12 -21,29 -27,52 -6,22 -10,50 -13,81 -2,31 -3,69 -3,114z"/>
   <path class="fil0" d="M16060 12546c-30,28 -58,49 -86,63 -28,15 -59,22 -94,22 -31,0 -59,-8 -83,-23 -24,-16 -42,-36 -55,-62 -13,-27 -19,-55 -19,-85 0,-41 10,-76 32,-105 21,-29 50,-49 88,-59 7,-2 27,-7 58,-14 31,-8 57,-15 79,-22 22,-6 46,-14 72,-23 -1,-40 -8,-69 -19,-87 -12,-19 -36,-28 -72,-28 -32,0 -55,5 -71,16 -16,10 -29,26 -40,48 -12,21 -20,35 -24,42 -5,7 -15,10 -30,10 -14,0 -26,-5 -36,-16 -10,-11 -15,-25 -15,-42 0,-26 8,-52 23,-77 15,-25 39,-46 71,-62 33,-16 73,-24 122,-24 54,0 96,8 127,23 31,16 53,41 66,74 13,34 19,79 19,135 0,35 0,65 0,90 0,24 -1,52 -1,82 0,28 4,58 12,88 7,31 11,51 11,59 0,16 -6,30 -18,42 -12,13 -25,20 -40,20 -13,0 -25,-8 -37,-22 -13,-15 -26,-35 -40,-63zm-8 -218c-18,8 -44,17 -78,26 -35,9 -59,15 -72,20 -13,4 -26,12 -38,24 -12,13 -18,30 -18,52 0,23 7,42 22,58 14,16 32,24 55,24 24,0 47,-6 67,-19 21,-13 36,-30 46,-51 11,-22 16,-60 16,-112l0 -22zm357 -226l0 19c22,-36 46,-61 71,-77 26,-17 56,-25 89,-25 32,0 61,9 87,26 26,17 45,42 57,73 8,19 14,38 16,60 2,21 4,48 4,81l0 280c0,30 -6,53 -17,68 -12,16 -26,24 -44,24 -19,0 -34,-8 -45,-24 -11,-16 -17,-38 -17,-68l0 -251c0,-49 -6,-87 -17,-113 -11,-27 -34,-40 -68,-40 -21,0 -41,8 -59,24 -18,16 -32,38 -40,66 -6,22 -9,64 -9,126l0 188c0,31 -6,53 -17,69 -12,15 -27,23 -45,23 -18,0 -32,-8 -44,-24 -11,-16 -17,-38 -17,-68l0 -435c0,-28 5,-49 15,-64 11,-14 25,-21 42,-21 11,0 21,3 29,10 9,6 16,15 21,27 6,13 8,28 8,46zm566 -215l0 223c16,-22 31,-40 46,-52 15,-13 31,-23 49,-29 19,-7 38,-10 59,-10 31,0 59,8 83,24 24,17 43,40 57,71 9,18 14,38 18,60 3,22 4,48 4,77l0 288c0,30 -6,53 -17,68 -11,16 -26,24 -45,24 -40,0 -61,-31 -61,-92l0 -254c0,-48 -6,-85 -17,-111 -12,-26 -34,-39 -67,-39 -22,0 -42,8 -59,23 -18,15 -31,36 -40,63 -6,22 -10,62 -10,119l0 199c0,30 -5,52 -16,68 -11,16 -26,24 -46,24 -40,0 -61,-31 -61,-92l0 -652c0,-30 6,-53 17,-68 10,-16 25,-23 44,-23 20,0 35,7 46,23 11,15 16,38 16,68zm757 659l0 -20c-15,23 -30,42 -47,58 -16,15 -33,27 -52,34 -20,8 -42,11 -66,11 -30,0 -57,-7 -80,-22 -24,-15 -42,-36 -55,-62 -15,-32 -23,-78 -23,-138l0 -298c0,-30 6,-53 17,-68 11,-14 26,-22 44,-22 18,0 33,8 45,23 11,15 17,37 17,67l0 241c0,35 2,64 7,87 5,24 13,43 26,56 12,13 29,20 51,20 20,0 40,-7 58,-22 19,-15 32,-35 40,-59 7,-22 11,-68 11,-140l0 -183c0,-30 6,-52 17,-67 11,-15 26,-23 45,-23 18,0 33,8 44,22 11,15 17,38 17,68l0 436c0,28 -6,50 -17,64 -10,14 -24,22 -41,22 -17,0 -30,-8 -41,-23 -11,-15 -17,-36 -17,-62zm350 -444l0 19c21,-36 45,-61 71,-77 26,-17 55,-25 88,-25 33,0 62,9 88,26 25,17 44,42 57,73 8,19 13,38 16,60 2,21 3,48 3,81l0 280c0,30 -6,53 -17,68 -11,16 -26,24 -44,24 -18,0 -33,-8 -45,-24 -11,-16 -17,-38 -17,-68l0 -251c0,-49 -5,-87 -17,-113 -11,-27 -33,-40 -67,-40 -22,0 -42,8 -60,24 -18,16 -31,38 -40,66 -6,22 -9,64 -9,126l0 188c0,31 -5,53 -17,69 -11,15 -26,23 -45,23 -17,0 -32,-8 -43,-24 -12,-16 -17,-38 -17,-68l0 -435c0,-28 5,-49 15,-64 10,-14 24,-21 42,-21 11,0 20,3 29,10 9,6 16,15 21,27 5,13 8,28 8,46zm842 332c0,42 -8,77 -25,107 -16,29 -41,51 -73,67 -33,15 -72,23 -118,23 -44,0 -82,-9 -114,-25 -31,-17 -54,-37 -69,-62 -15,-25 -23,-50 -23,-75 0,-16 5,-30 15,-42 9,-12 21,-18 36,-18 13,0 23,4 30,12 7,8 13,19 20,33 12,26 27,46 45,60 17,13 41,19 72,19 24,0 45,-6 60,-20 16,-13 24,-28 24,-46 0,-26 -8,-45 -25,-58 -16,-12 -43,-23 -81,-34 -42,-13 -76,-27 -103,-41 -26,-14 -48,-33 -64,-56 -15,-23 -24,-51 -24,-85 0,-30 8,-59 22,-86 15,-27 37,-48 66,-64 28,-16 63,-24 104,-24 31,0 60,4 85,12 26,8 47,19 64,33 17,13 30,28 39,45 8,17 13,32 13,49 0,17 -5,31 -14,42 -10,11 -23,16 -41,16 -12,0 -23,-4 -32,-13 -9,-9 -19,-22 -31,-40 -9,-14 -20,-26 -32,-35 -13,-9 -30,-13 -52,-13 -22,0 -40,6 -55,17 -15,12 -22,26 -22,44 0,16 5,29 16,38 11,11 26,19 44,26 18,6 43,14 75,24 39,11 70,25 94,41 24,15 42,34 55,56 12,21 19,46 19,73z"/>
   <path class="fil1" d="M1726 0c953,0 1726,773 1726,1726 0,953 -773,1726 -1726,1726 -953,0 -1726,-773 -1726,-1726 0,-953 773,-1726 1726,-1726z"/>
   <path class="fil1" d="M3814 250l2310 0c169,0 307,138 307,307l0 2338c0,168 -138,306 -307,306l-2310 0c-169,0 -306,-138 -306,-306l0 -2338c0,-169 137,-307 306,-307z"/>
   <path class="fil1" d="M7043 250l2310 0c169,0 307,138 307,307l0 2338c0,168 -138,306 -307,306l-2310 0c-168,0 -306,-138 -306,-306l0 -2338c0,-169 138,-307 306,-307z"/>
   <path class="fil1" d="M3814 3507l2310 0c169,0 307,138 307,306l0 2339c0,168 -138,306 -307,306l-2310 0c-169,0 -306,-138 -306,-306l0 -2339c0,-168 137,-306 306,-306z"/>
   <path class="fil1" d="M612 3507l2311 0c168,0 306,138 306,306l0 2339c0,168 -138,306 -306,306l-2311 0c-168,0 -306,-138 -306,-306l0 -2339c0,-168 138,-306 306,-306z"/>
   <path class="fil1" d="M3814 6736l2310 0c169,0 307,138 307,306l0 2338c0,169 -138,306 -307,306l-2310 0c-169,0 -306,-137 -306,-306l0 -2338c0,-168 137,-306 306,-306z"/>
   <path class="fil1" d="M612 6736l2311 0c168,0 306,138 306,306l0 2338c0,169 -138,306 -306,306l-2311 0c-168,0 -306,-137 -306,-306l0 -2338c0,-168 138,-306 306,-306z"/>
   <path class="fil1" d="M3814 9993l2310 0c169,0 307,137 307,306l0 2338c0,168 -138,306 -307,306l-2310 0c-169,0 -306,-138 -306,-306l0 -2338c0,-169 137,-306 306,-306z"/>
   <path class="fil1" d="M612 9993l2311 0c168,0 306,137 306,306l0 2338c0,168 -138,306 -306,306l-2311 0c-168,0 -306,-138 -306,-306l0 -2338c0,-169 138,-306 306,-306z"/>
   <path class="fil1" d="M7043 6736l2310 0c169,0 307,138 307,306l0 2338c0,169 -138,306 -307,306l-2310 0c-168,0 -306,-137 -306,-306l0 -2338c0,-168 138,-306 306,-306z"/>
  </g>
 </g>
</svg>
