<?xml version="1.0" encoding="UTF-8"?>
<!DOCTYPE svg PUBLIC "-//W3C//DTD SVG 1.1//EN" "http://www.w3.org/Graphics/SVG/1.1/DTD/svg11.dtd">
<!-- Creator: CorelDRAW X8 -->
<svg xmlns="http://www.w3.org/2000/svg" xml:space="preserve" width="18px" height="18px" version="1.1" style="shape-rendering:geometricPrecision; text-rendering:geometricPrecision; image-rendering:optimizeQuality; fill-rule:evenodd; clip-rule:evenodd"
viewBox="0 0 337 337"
 xmlns:xlink="http://www.w3.org/1999/xlink">
 <defs>
  <style type="text/css">
   <![CDATA[
    .fil0 {fill:#FEFEFE}
   ]]>
  </style>
 </defs>
 <g id="Camada_x0020_1">
  <metadata id="CorelCorpID_0Corel-Layer"/>
  <g id="_3113121101040">
   <g>
    <path class="fil0" d="M169 0c-93,0 -169,76 -169,169 0,93 76,168 169,168 93,0 168,-75 168,-168 0,-93 -75,-169 -168,-169zm0 325c-87,0 -157,-70 -157,-156 0,-87 70,-157 157,-157 86,0 156,70 156,157 0,86 -70,156 -156,156z"/>
    <path class="fil0" d="M90 102l157 0c3,0 6,-2 6,-6 0,-3 -3,-6 -6,-6l-157 0c-3,0 -6,3 -6,6 0,4 3,6 6,6z"/>
    <path class="fil0" d="M271 187l-205 0c-3,0 -6,2 -6,6 0,3 3,6 6,6l205 0c3,0 6,-3 6,-6 0,-4 -3,-6 -6,-6z"/>
    <path class="fil0" d="M271 138l-205 0c-3,0 -6,3 -6,7 0,3 3,6 6,6l205 0c3,0 6,-3 6,-6 0,-4 -3,-7 -6,-7z"/>
    <path class="fil0" d="M247 235l-157 0c-3,0 -6,3 -6,6 0,3 3,6 6,6l157 0c3,0 6,-3 6,-6 0,-3 -3,-6 -6,-6z"/>
   </g>
   <g>
   </g>
   <g>
   </g>
   <g>
   </g>
   <g>
   </g>
   <g>
   </g>
   <g>
   </g>
   <g>
   </g>
   <g>
   </g>
   <g>
   </g>
   <g>
   </g>
   <g>
   </g>
   <g>
   </g>
   <g>
   </g>
   <g>
   </g>
   <g>
   </g>
  </g>
 </g>
</svg>
